<svg xmlns="http://www.w3.org/2000/svg" width="512" height="512" xml:space="preserve"><g><path fill="#5D9CEC" d="m297 169-42.5 5-85.5-14 5 323 50 10h84l32-14V149.34z"/><ellipse fill="#4A89DC" cx="256" cy="148.25" rx="78.88" ry="18.25"/><path fill="#F5F7FA" d="M304 333.31c0 23.6-21.22 42.7-47.38 42.7-26.17 0-47.39-19.1-47.39-42.7 0-23.58 21.22-42.69 47.4-42.69 26.15 0 47.37 19.11 47.37 42.7z"/><path fill="#FFCE54" d="M227.34 12.67 232.02 26l10 20 32.65-8L288 12.67z"/><g fill="#080808"><path d="M352 149.72c-.02-.17-.02-.35-.03-.52-.24-6.17-3.74-10.9-8.47-14.51l-64.02-88.44a42.65 42.65 0 0 0 19.2-35.6V0h-85.35v10.66a42.65 42.65 0 0 0 19.19 35.59l-64.02 88.44c-4.73 3.6-8.22 8.34-8.47 14.51-.01.18-.01.35-.03.52V480c0 17.16 24.9 23.4 33.08 25.44 16.94 4.22 39.28 6.56 62.92 6.56s45.98-2.34 62.92-6.56c8.19-2.05 33.08-8.28 33.08-25.44V149.72zm-21.33 28.14c-1.15 1.05-3.33 2.65-7.23 4.45-9.6 4.4-29.1 9.69-67.44 9.69-54.42 0-70.73-10.6-74.67-14.16v-6.04c4.73 1.76 9.1 2.86 11.75 3.51 16.89 4.22 39.17 6.56 62.75 6.56H256c23.64 0 45.98-2.32 62.92-6.56 2.64-.65 7.03-1.75 11.75-3.51v6.06zm-64.1-38.47c15.27.49 29.76 2.03 41.6 4.49 9.83 2.03 15.92 4.28 19.4 6-3.48 1.73-9.57 3.98-19.4 6.01-11.84 2.45-26.34 4-41.64 4.49l.03-20.99zm-21.37 20.99c-15.2-.5-29.6-2.05-41.37-4.49-9.83-2.03-15.92-4.28-19.4-6.01 3.48-1.72 9.57-3.97 19.4-6 11.78-2.44 26.19-3.99 41.39-4.49l-.02 20.99zm21.38-42.33.04-53.17 41.46 57.25c-12.28-2.24-26.49-3.63-41.5-4.08zm-21.33 0c-14.95.45-29.1 1.86-41.33 4.08l41.38-57.16-.05 53.08zm-63.92 84.39c16.8 7.23 41.9 10.89 74.67 10.89 37.88 0 60.8-4.97 74.67-10.9v242.1c-1.15 1.03-3.33 2.66-7.23 4.44-9.6 4.42-29.1 9.69-67.44 9.69-54.42 0-70.73-10.58-74.67-14.14V202.44zm93.14-181.11a21.34 21.34 0 0 1-36.94 0h36.94zM308.17 486c-14.54 3-33.08 4.66-52.17 4.66S218.37 489 203.83 486c-13.94-2.88-20.38-6.2-22.5-7.84v-9.05c16.8 7.22 41.9 10.89 74.67 10.89 37.88 0 60.8-4.97 74.67-10.9v9.06c-2.12 1.64-8.56 4.96-22.5 7.84z"/><path d="M320 330.66c0-32.38-28.7-58.74-64-58.74-35.28 0-64 26.36-64 58.74 0 32.39 28.72 58.75 64 58.75 35.3 0 64-26.36 64-58.75zm-106.67 0c0-20.63 19.14-37.4 42.67-37.4s42.67 16.77 42.67 37.4-19.14 37.4-42.67 37.4-42.67-16.78-42.67-37.4z"/><path d="M288 330.94c0-5.9-4.78-10.67-10.67-10.67h-42.66a10.68 10.68 0 0 0 0 21.34h42.66c5.89 0 10.67-4.78 10.67-10.67z"/></g></g></svg>