<svg xml:space="preserve" width="786.34" height="821.96" xmlns="http://www.w3.org/2000/svg"><switch transform="translate(-174 -156.57)"><g><linearGradient id="a" gradientUnits="userSpaceOnUse" x1="509.24" y1="503.8" x2="509.61" y2="503.8"><stop offset="0" stop-color="#fff"/><stop offset="1" stop-color="#fff"/></linearGradient><path d="m509.61 503.32-.37.95c.11-.31.23-.63.37-.95z" fill="url(#a)"/><linearGradient id="b" gradientUnits="userSpaceOnUse" x1="514.73" y1="494.64" x2="515.52" y2="494.64"><stop offset="0" stop-color="#fff"/><stop offset="1" stop-color="#fff"/></linearGradient><path d="M515.52 494.59c-.27.04-.52.09-.79.12.27-.13.53-.18.79-.12z" fill="url(#b)"/><linearGradient id="c" gradientUnits="userSpaceOnUse" x1="174.01" y1="567.55" x2="960.34" y2="567.55"><stop offset="0" stop-color="#fff"/><stop offset="1" stop-color="#fff"/></linearGradient><path d="M955.59 521.16c-6.84-21.93-21.37-37.45-41.07-48.38-20.96-11.62-43.82-17.27-67.29-21.06a563.7 563.7 0 0 0-57.11-6.02c-14.91-.87-29.83-1.34-44.75-1.94-44.94-1.81-89.9-.27-134.84-.94.34-1.62 7.38-16.2 9-19.72 10.47-21.29 20.97-42.56 31.4-63.86 14.49-29.59 28.91-59.2 43.38-88.8 15.84-32.4 31.72-64.79 47.55-97.21 2.03-4.13 3.78-8.4 5.83-12.53 1.22-2.48 1.47-3.67-2.08-3.89-23.85-1.48-45.76 3.7-64.67 18.87-9.96 7.99-18.28 17.48-24 29.05-14.96 30.29-30.22 60.42-44.8 90.89-10.31 21.55-21.51 42.66-31.65 64.29-9.24 19.69-19.3 38.97-28.82 58.52-.56 1.17-11.23 22.76-12.13 24.42-50.41.01-100.82-.12-151.22.1-26.57.11-53.11.89-79.59 3.75-22.1 2.38-43.74 6.43-64.73 13.8-16.64 5.84-31.97 14.09-44.53 26.48-13.19 13.03-21.09 29.04-23.99 47.56-2.6 16.63-1.8 33.02 2.74 49.11 6.64 23.57 21.76 40.51 42.65 52.62 18.32 10.61 38.45 15.85 59.08 19.33 14.21 2.41 28.58 3.29 42.98 4.18 46.86 2.91 93.74 1.63 140.61 1.58 7.71-.01 15.72-.04 23.43-2.16 13.24-3.64 22.36-12.26 28.86-23.83 3.86-6.87 17.93-37.5 21.59-44.08 3.24-6.46 6.55-12.88 9.69-19.38 3.34-6.91 14.92-31.05 17.47-36.18 6.68-13.41 13.66-26.67 19.57-40.45 53.56.02 107.12-.4 160.67.25 28.17.34 56.32 2.72 83.56 10.95 12.7 3.84 24.65 9.46 34.55 18.43 15 13.61 15.28 37.26 4.68 51.27-7.7 10.18-18.31 15.85-29.74 20.21-15.71 6-32.2 8.83-48.84 10.83a543.87 543.87 0 0 1-38.69 3.05c-39.18 1.9-78.37.31-117.55.83-10.01.13-17.37 4.22-21.84 13.25-14.61 29.54-29.37 59.01-43.68 88.7-4.44 9.2-8.91 18.38-13.42 27.54-16.46 33.42-33.29 66.65-49.42 100.22-10.49 21.84-21.83 43.26-32.12 65.19-10.35 22.09-21.68 43.69-32.35 65.62-.58 1.18-.98 2.44-1.49 3.65-.87 2.07-.35 2.96 2.03 3.06 22.38.91 44.08-.93 63.05-14.7 10.41-7.56 18.98-16.72 24.72-28.31a26032.4 26032.4 0 0 0 41.36-83.79c15.17-30.91 30.26-61.87 45.38-92.81 13.95-28.56 28.12-57.04 41.71-85.78 4.24-8.94 11.09-12.23 20.03-12.26 35.76-.14 71.54.71 107.27-.28 35.75-1 71.35-4.48 105.41-16.75 18.12-6.53 34.87-15.38 48.18-29.74 11.49-12.41 18.27-27.03 21.15-43.7a103.27 103.27 0 0 0-3.17-49.05zm-446.35-16.89c.11-.31.23-.63.37-.95zm.56-1.43-.01.02c-.85 1.78-9.84 20.61-13.86 29.1-10.24 20.85-20.51 41.68-30.72 62.54-4.01 8.19-9.88 13.49-19.34 14.87-10.94 1.61-21.95.93-32.9 1.48-20.49 1.03-41.02-.7-61.54-1.54-16.22-.67-32.41-1.49-48.42-4.17-12.61-2.12-24.42-6.27-34.25-14.99-9.57-8.48-13.95-19.48-14.93-31.76-.99-12.43 2.07-23.71 11.54-32.78 10.18-9.76 22.57-15.32 35.72-19.1 27.59-7.92 56-10.64 84.54-11.03 39.2-.54 78.42-.13 117.62-.16l10.36.01zm4.93-8.13c.27-.13.53-.18.79-.12-.27.04-.52.09-.79.12z" fill="url(#c)"/><linearGradient id="d" gradientUnits="userSpaceOnUse" x1="509.24" y1="499.42" x2="515.52" y2="499.42"><stop offset="0" stop-color="#fff"/><stop offset="1" stop-color="#fff"/></linearGradient><path d="m509.24 504.27.37-.95c-.14.32-.26.64-.37.95zm5.49-9.56c.27-.03.52-.08.79-.12a1.18 1.18 0 0 0-.79.12z" fill="url(#d)"/><linearGradient id="e" gradientUnits="userSpaceOnUse" x1="514.73" y1="494.64" x2="515.52" y2="494.64"><stop offset="0" stop-color="#fff"/><stop offset="1" stop-color="#fff"/></linearGradient><path d="M514.73 494.71c.27-.03.52-.08.79-.12a1.18 1.18 0 0 0-.79.12z" fill="url(#e)"/><linearGradient id="f" gradientUnits="userSpaceOnUse" x1="509.24" y1="503.8" x2="509.61" y2="503.8"><stop offset="0" stop-color="#fff"/><stop offset="1" stop-color="red"/></linearGradient><path d="m509.61 503.32-.37.95c.11-.31.23-.63.37-.95z" fill="url(#f)"/></g></switch></svg>