<svg data-name="Layer 21" height="24" width="24" xmlns="http://www.w3.org/2000/svg"><path d="M21.55 7h-3.3a.74.74 0 00-.65.4s-1.31 2.4-1.73 3.22c-1.14 2.2-1.87 1.5-1.87.49V7.6a1.1 1.1 0 00-1.1-1.11h-2.48a1.98 1.98 0 00-1.75.81s1.26-.2 1.26 1.5l.04 2.63a.73.73 0 01-1.27.5A21.54 21.54 0 016.2 7.4a.7.7 0 00-.63-.4h-3a.5.5 0 00-.47.68C3 10.18 6.92 18 11.38 18h1.88a.74.74 0 00.74-.74v-1.14a.73.73 0 011.23-.53l2.25 2.11a1.09 1.09 0 00.74.3h2.96c1.42 0 1.42-.99.64-1.75-.54-.54-2.51-2.62-2.51-2.62a1.02 1.02 0 01-.08-1.32 962 962 0 002.12-2.8c.6-.8 1.7-2.51.2-2.51z"/></svg>